STARTFONT 2.1
COMMENT $Header: courR10.bdf,v 1.2 96/01/23 19:46:52 peterlin Exp $
COMMENT 
COMMENT Copyright International Business Machines,Corp. 1991
COMMENT IBM Courier is a Trademark of the IBM Corporation.
COMMENT 
COMMENT Automatic rendering from Adobe Type 1 outline:
COMMENT Primoz Peterlin <primoz.peterlin@biofiz.mf.uni-lj.si>
COMMENT cour.pfa rendered at 11.000000 points
COMMENT Checksum eb69a063
FONT -ibm-courier-medium-r-normal--10-100-75-75-m-49-iso8859-2
SIZE 10 75 75
FONTBOUNDINGBOX 9 11 -1 -1
STARTPROPERTIES 3
FONT_ASCENT 9
FONT_DESCENT 1
DEFAULT_CHAR 32
ENDPROPERTIES
CHARS 191
STARTCHAR space
ENCODING 32
SWIDTH 606 0
DWIDTH 7 0
BBX 0 0 0 1
BITMAP
ENDCHAR
STARTCHAR exclam
ENCODING 33
SWIDTH 606 0
DWIDTH 7 0
BBX 2 6 2 1
BITMAP
40
40
40
40
00
40
ENDCHAR
STARTCHAR quotedbl
ENCODING 34
SWIDTH 606 0
DWIDTH 7 0
BBX 3 3 2 4
BITMAP
a0
a0
a0
ENDCHAR
STARTCHAR numbersign
ENCODING 35
SWIDTH 606 0
DWIDTH 7 0
BBX 5 8 1 0
BITMAP
50
50
f8
50
50
f8
50
50
ENDCHAR
STARTCHAR dollar
ENCODING 36
SWIDTH 606 0
DWIDTH 7 0
BBX 5 8 1 0
BITMAP
20
70
88
60
30
88
70
20
ENDCHAR
STARTCHAR percent
ENCODING 37
SWIDTH 606 0
DWIDTH 7 0
BBX 6 7 0 1
BITMAP
40
a4
48
30
48
94
08
ENDCHAR
STARTCHAR ampersand
ENCODING 38
SWIDTH 606 0
DWIDTH 7 0
BBX 5 6 1 1
BITMAP
30
40
48
b0
90
68
ENDCHAR
STARTCHAR quoteright
ENCODING 39
SWIDTH 606 0
DWIDTH 7 0
BBX 2 3 2 4
BITMAP
40
80
80
ENDCHAR
STARTCHAR parenleft
ENCODING 40
SWIDTH 606 0
DWIDTH 7 0
BBX 2 8 3 0
BITMAP
40
40
80
80
80
80
40
40
ENDCHAR
STARTCHAR parenright
ENCODING 41
SWIDTH 606 0
DWIDTH 7 0
BBX 2 8 2 0
BITMAP
80
80
40
40
40
40
80
80
ENDCHAR
STARTCHAR asterisk
ENCODING 42
SWIDTH 606 0
DWIDTH 7 0
BBX 5 4 1 3
BITMAP
20
d8
20
50
ENDCHAR
STARTCHAR plus
ENCODING 43
SWIDTH 606 0
DWIDTH 7 0
BBX 5 5 1 2
BITMAP
20
20
f8
20
20
ENDCHAR
STARTCHAR comma
ENCODING 44
SWIDTH 606 0
DWIDTH 7 0
BBX 2 3 2 0
BITMAP
40
80
80
ENDCHAR
STARTCHAR minus
ENCODING 45
SWIDTH 606 0
DWIDTH 7 0
BBX 5 1 1 4
BITMAP
f8
ENDCHAR
STARTCHAR period
ENCODING 46
SWIDTH 606 0
DWIDTH 7 0
BBX 2 1 2 1
BITMAP
40
ENDCHAR
STARTCHAR slash
ENCODING 47
SWIDTH 606 0
DWIDTH 7 0
BBX 5 9 1 0
BITMAP
08
08
10
10
20
20
40
40
80
ENDCHAR
STARTCHAR zero
ENCODING 48
SWIDTH 606 0
DWIDTH 7 0
BBX 5 7 1 1
BITMAP
70
88
88
88
88
88
70
ENDCHAR
STARTCHAR one
ENCODING 49
SWIDTH 606 0
DWIDTH 7 0
BBX 5 7 1 1
BITMAP
20
e0
20
20
20
20
f8
ENDCHAR
STARTCHAR two
ENCODING 50
SWIDTH 606 0
DWIDTH 7 0
BBX 4 7 1 1
BITMAP
60
90
10
20
40
90
f0
ENDCHAR
STARTCHAR three
ENCODING 51
SWIDTH 606 0
DWIDTH 7 0
BBX 4 7 1 1
BITMAP
60
90
10
60
10
90
60
ENDCHAR
STARTCHAR four
ENCODING 52
SWIDTH 606 0
DWIDTH 7 0
BBX 5 7 1 1
BITMAP
10
30
50
90
f8
10
38
ENDCHAR
STARTCHAR five
ENCODING 53
SWIDTH 606 0
DWIDTH 7 0
BBX 5 7 1 1
BITMAP
f0
80
80
f0
08
08
70
ENDCHAR
STARTCHAR six
ENCODING 54
SWIDTH 606 0
DWIDTH 7 0
BBX 5 7 1 1
BITMAP
30
40
80
f0
88
88
70
ENDCHAR
STARTCHAR seven
ENCODING 55
SWIDTH 606 0
DWIDTH 7 0
BBX 5 7 1 1
BITMAP
f8
88
10
10
20
20
20
ENDCHAR
STARTCHAR eight
ENCODING 56
SWIDTH 606 0
DWIDTH 7 0
BBX 5 7 1 1
BITMAP
70
88
88
70
88
88
70
ENDCHAR
STARTCHAR nine
ENCODING 57
SWIDTH 606 0
DWIDTH 7 0
BBX 5 7 1 1
BITMAP
70
88
88
78
08
10
60
ENDCHAR
STARTCHAR colon
ENCODING 58
SWIDTH 606 0
DWIDTH 7 0
BBX 2 4 2 1
BITMAP
40
00
00
40
ENDCHAR
STARTCHAR semicolon
ENCODING 59
SWIDTH 606 0
DWIDTH 7 0
BBX 2 5 2 0
BITMAP
40
00
00
80
80
ENDCHAR
STARTCHAR less
ENCODING 60
SWIDTH 606 0
DWIDTH 7 0
BBX 5 5 1 2
BITMAP
18
60
80
60
18
ENDCHAR
STARTCHAR equal
ENCODING 61
SWIDTH 606 0
DWIDTH 7 0
BBX 5 3 1 3
BITMAP
f8
00
f8
ENDCHAR
STARTCHAR greater
ENCODING 62
SWIDTH 606 0
DWIDTH 7 0
BBX 5 5 1 2
BITMAP
c0
30
08
30
c0
ENDCHAR
STARTCHAR question
ENCODING 63
SWIDTH 606 0
DWIDTH 7 0
BBX 4 6 1 1
BITMAP
60
90
20
40
00
40
ENDCHAR
STARTCHAR at
ENCODING 64
SWIDTH 606 0
DWIDTH 7 0
BBX 6 6 0 1
BITMAP
38
44
b4
ac
b8
78
ENDCHAR
STARTCHAR A
ENCODING 65
SWIDTH 606 0
DWIDTH 7 0
BBX 6 6 0 1
BITMAP
70
28
28
78
44
cc
ENDCHAR
STARTCHAR B
ENCODING 66
SWIDTH 606 0
DWIDTH 7 0
BBX 6 6 0 1
BITMAP
f8
44
78
44
44
f8
ENDCHAR
STARTCHAR C
ENCODING 67
SWIDTH 606 0
DWIDTH 7 0
BBX 7 6 0 1
BITMAP
3c
c4
80
80
40
3c
ENDCHAR
STARTCHAR D
ENCODING 68
SWIDTH 606 0
DWIDTH 7 0
BBX 6 6 0 1
BITMAP
f8
44
44
44
44
f8
ENDCHAR
STARTCHAR E
ENCODING 69
SWIDTH 606 0
DWIDTH 7 0
BBX 5 6 1 1
BITMAP
f8
48
70
40
48
f8
ENDCHAR
STARTCHAR F
ENCODING 70
SWIDTH 606 0
DWIDTH 7 0
BBX 5 6 1 1
BITMAP
f8
48
70
50
40
e0
ENDCHAR
STARTCHAR G
ENCODING 71
SWIDTH 606 0
DWIDTH 7 0
BBX 6 6 0 1
BITMAP
38
c4
80
8c
44
3c
ENDCHAR
STARTCHAR H
ENCODING 72
SWIDTH 606 0
DWIDTH 7 0
BBX 7 6 0 1
BITMAP
ee
44
7c
44
44
ee
ENDCHAR
STARTCHAR I
ENCODING 73
SWIDTH 606 0
DWIDTH 7 0
BBX 5 6 1 1
BITMAP
f8
20
20
20
20
f8
ENDCHAR
STARTCHAR J
ENCODING 74
SWIDTH 606 0
DWIDTH 7 0
BBX 6 6 0 1
BITMAP
3c
08
08
88
88
70
ENDCHAR
STARTCHAR K
ENCODING 75
SWIDTH 606 0
DWIDTH 7 0
BBX 6 6 1 1
BITMAP
d8
50
60
50
48
cc
ENDCHAR
STARTCHAR L
ENCODING 76
SWIDTH 606 0
DWIDTH 7 0
BBX 5 6 1 1
BITMAP
e0
40
40
48
48
f8
ENDCHAR
STARTCHAR M
ENCODING 77
SWIDTH 606 0
DWIDTH 7 0
BBX 7 6 0 1
BITMAP
c6
6c
6c
54
44
ee
ENDCHAR
STARTCHAR N
ENCODING 78
SWIDTH 606 0
DWIDTH 7 0
BBX 7 6 0 1
BITMAP
ce
64
54
54
4c
e4
ENDCHAR
STARTCHAR O
ENCODING 79
SWIDTH 606 0
DWIDTH 7 0
BBX 6 6 0 1
BITMAP
78
c4
84
84
44
38
ENDCHAR
STARTCHAR P
ENCODING 80
SWIDTH 606 0
DWIDTH 7 0
BBX 5 6 1 1
BITMAP
f0
48
48
70
40
e0
ENDCHAR
STARTCHAR Q
ENCODING 81
SWIDTH 606 0
DWIDTH 7 0
BBX 6 8 0 -1
BITMAP
78
c4
84
84
44
38
30
0c
ENDCHAR
STARTCHAR R
ENCODING 82
SWIDTH 606 0
DWIDTH 7 0
BBX 6 6 0 1
BITMAP
f8
4c
70
48
4c
e4
ENDCHAR
STARTCHAR S
ENCODING 83
SWIDTH 606 0
DWIDTH 7 0
BBX 6 6 1 1
BITMAP
74
88
f0
08
88
f0
ENDCHAR
STARTCHAR T
ENCODING 84
SWIDTH 606 0
DWIDTH 7 0
BBX 5 6 1 1
BITMAP
f8
a8
20
20
20
70
ENDCHAR
STARTCHAR U
ENCODING 85
SWIDTH 606 0
DWIDTH 7 0
BBX 7 6 0 1
BITMAP
ee
44
44
44
44
38
ENDCHAR
STARTCHAR V
ENCODING 86
SWIDTH 606 0
DWIDTH 7 0
BBX 7 6 0 1
BITMAP
c6
44
2c
28
10
10
ENDCHAR
STARTCHAR W
ENCODING 87
SWIDTH 606 0
DWIDTH 7 0
BBX 7 6 0 1
BITMAP
ee
44
54
7c
28
28
ENDCHAR
STARTCHAR X
ENCODING 88
SWIDTH 606 0
DWIDTH 7 0
BBX 5 6 1 1
BITMAP
d8
50
20
50
50
d8
ENDCHAR
STARTCHAR Y
ENCODING 89
SWIDTH 606 0
DWIDTH 7 0
BBX 7 6 0 1
BITMAP
ee
44
28
10
10
38
ENDCHAR
STARTCHAR Z
ENCODING 90
SWIDTH 606 0
DWIDTH 7 0
BBX 5 6 1 1
BITMAP
f8
90
20
40
88
f8
ENDCHAR
STARTCHAR bracketleft
ENCODING 91
SWIDTH 606 0
DWIDTH 7 0
BBX 2 8 3 0
BITMAP
c0
80
80
80
80
80
80
c0
ENDCHAR
STARTCHAR backslash
ENCODING 92
SWIDTH 606 0
DWIDTH 7 0
BBX 5 9 1 0
BITMAP
80
40
40
20
20
20
10
10
08
ENDCHAR
STARTCHAR bracketright
ENCODING 93
SWIDTH 606 0
DWIDTH 7 0
BBX 2 8 1 0
BITMAP
c0
40
40
40
40
40
40
c0
ENDCHAR
STARTCHAR asciicircum
ENCODING 94
SWIDTH 606 0
DWIDTH 7 0
BBX 5 5 1 2
BITMAP
20
50
50
88
88
ENDCHAR
STARTCHAR underscore
ENCODING 95
SWIDTH 606 0
DWIDTH 7 0
BBX 8 1 -1 -1
BITMAP
ff
ENDCHAR
STARTCHAR quoteleft
ENCODING 96
SWIDTH 606 0
DWIDTH 7 0
BBX 2 3 2 4
BITMAP
40
40
80
ENDCHAR
STARTCHAR a
ENCODING 97
SWIDTH 606 0
DWIDTH 7 0
BBX 6 5 0 1
BITMAP
70
08
78
88
7c
ENDCHAR
STARTCHAR b
ENCODING 98
SWIDTH 606 0
DWIDTH 7 0
BBX 6 7 0 1
BITMAP
c0
40
78
44
44
44
f8
ENDCHAR
STARTCHAR c
ENCODING 99
SWIDTH 606 0
DWIDTH 7 0
BBX 5 5 1 1
BITMAP
78
88
80
80
70
ENDCHAR
STARTCHAR d
ENCODING 100
SWIDTH 606 0
DWIDTH 7 0
BBX 6 7 0 1
BITMAP
04
04
74
8c
84
8c
74
ENDCHAR
STARTCHAR e
ENCODING 101
SWIDTH 606 0
DWIDTH 7 0
BBX 5 5 1 1
BITMAP
70
88
f8
80
78
ENDCHAR
STARTCHAR f
ENCODING 102
SWIDTH 606 0
DWIDTH 7 0
BBX 5 7 1 1
BITMAP
70
40
f0
40
40
40
f0
ENDCHAR
STARTCHAR g
ENCODING 103
SWIDTH 606 0
DWIDTH 7 0
BBX 6 7 0 -1
BITMAP
7c
88
88
88
78
08
30
ENDCHAR
STARTCHAR h
ENCODING 104
SWIDTH 606 0
DWIDTH 7 0
BBX 7 7 0 1
BITMAP
c0
40
78
44
44
44
ee
ENDCHAR
STARTCHAR i
ENCODING 105
SWIDTH 606 0
DWIDTH 7 0
BBX 5 7 1 1
BITMAP
20
00
e0
20
20
20
f8
ENDCHAR
STARTCHAR j
ENCODING 106
SWIDTH 606 0
DWIDTH 7 0
BBX 4 9 1 -1
BITMAP
20
00
f0
10
10
10
10
10
e0
ENDCHAR
STARTCHAR k
ENCODING 107
SWIDTH 606 0
DWIDTH 7 0
BBX 6 7 0 1
BITMAP
c0
40
4c
50
60
58
cc
ENDCHAR
STARTCHAR l
ENCODING 108
SWIDTH 606 0
DWIDTH 7 0
BBX 5 7 1 1
BITMAP
e0
20
20
20
20
20
f8
ENDCHAR
STARTCHAR m
ENCODING 109
SWIDTH 606 0
DWIDTH 7 0
BBX 7 5 0 1
BITMAP
ec
54
54
54
d6
ENDCHAR
STARTCHAR n
ENCODING 110
SWIDTH 606 0
DWIDTH 7 0
BBX 7 5 0 1
BITMAP
f8
44
44
44
ee
ENDCHAR
STARTCHAR o
ENCODING 111
SWIDTH 606 0
DWIDTH 7 0
BBX 6 5 0 1
BITMAP
38
c4
84
84
78
ENDCHAR
STARTCHAR p
ENCODING 112
SWIDTH 606 0
DWIDTH 7 0
BBX 6 7 0 -1
BITMAP
f8
44
44
44
78
40
e0
ENDCHAR
STARTCHAR q
ENCODING 113
SWIDTH 606 0
DWIDTH 7 0
BBX 7 7 0 -1
BITMAP
7c
c4
84
8c
74
04
1e
ENDCHAR
STARTCHAR r
ENCODING 114
SWIDTH 606 0
DWIDTH 7 0
BBX 5 5 1 1
BITMAP
d8
60
40
40
f0
ENDCHAR
STARTCHAR s
ENCODING 115
SWIDTH 606 0
DWIDTH 7 0
BBX 5 5 1 1
BITMAP
78
80
70
08
f0
ENDCHAR
STARTCHAR t
ENCODING 116
SWIDTH 606 0
DWIDTH 7 0
BBX 5 6 1 1
BITMAP
40
f0
40
40
40
38
ENDCHAR
STARTCHAR u
ENCODING 117
SWIDTH 606 0
DWIDTH 7 0
BBX 6 5 0 1
BITMAP
c8
48
48
48
3c
ENDCHAR
STARTCHAR v
ENCODING 118
SWIDTH 606 0
DWIDTH 7 0
BBX 6 5 0 1
BITMAP
d8
50
50
20
20
ENDCHAR
STARTCHAR w
ENCODING 119
SWIDTH 606 0
DWIDTH 7 0
BBX 7 5 0 1
BITMAP
c6
54
54
38
28
ENDCHAR
STARTCHAR x
ENCODING 120
SWIDTH 606 0
DWIDTH 7 0
BBX 6 5 0 1
BITMAP
6c
28
10
28
6c
ENDCHAR
STARTCHAR y
ENCODING 121
SWIDTH 606 0
DWIDTH 7 0
BBX 6 7 0 -1
BITMAP
cc
48
28
28
10
20
f0
ENDCHAR
STARTCHAR z
ENCODING 122
SWIDTH 606 0
DWIDTH 7 0
BBX 5 5 1 1
BITMAP
f8
90
20
48
f8
ENDCHAR
STARTCHAR braceleft
ENCODING 123
SWIDTH 606 0
DWIDTH 7 0
BBX 3 8 3 0
BITMAP
20
40
40
c0
80
40
40
20
ENDCHAR
STARTCHAR bar
ENCODING 124
SWIDTH 606 0
DWIDTH 7 0
BBX 1 9 3 -1
BITMAP
80
80
80
80
80
80
80
80
80
ENDCHAR
STARTCHAR braceright
ENCODING 125
SWIDTH 606 0
DWIDTH 7 0
BBX 3 8 2 0
BITMAP
80
40
40
60
20
40
40
80
ENDCHAR
STARTCHAR asciitilde
ENCODING 126
SWIDTH 606 0
DWIDTH 7 0
BBX 5 2 1 3
BITMAP
50
a0
ENDCHAR
STARTCHAR space
ENCODING 160
SWIDTH 606 0
DWIDTH 7 0
BBX 0 0 0 1
BITMAP
ENDCHAR
STARTCHAR Aogonek
ENCODING 161
SWIDTH 606 0
DWIDTH 7 0
BBX 6 7 0 0
BITMAP
70
28
28
78
44
cc
0c
ENDCHAR
STARTCHAR breve
ENCODING 162
SWIDTH 606 0
DWIDTH 7 0
BBX 4 2 1 6
BITMAP
90
60
ENDCHAR
STARTCHAR Lslash
ENCODING 163
SWIDTH 606 0
DWIDTH 7 0
BBX 5 6 1 1
BITMAP
e0
50
60
c8
48
f8
ENDCHAR
STARTCHAR currency
ENCODING 164
SWIDTH 606 0
DWIDTH 7 0
BBX 5 5 1 2
BITMAP
a8
50
88
50
a8
ENDCHAR
STARTCHAR Lcaron
ENCODING 165
SWIDTH 606 0
DWIDTH 7 0
BBX 5 7 1 1
BITMAP
08
e8
40
40
48
48
f8
ENDCHAR
STARTCHAR Sacute
ENCODING 166
SWIDTH 606 0
DWIDTH 7 0
BBX 6 8 1 1
BITMAP
20
00
74
88
f0
08
88
f0
ENDCHAR
STARTCHAR section
ENCODING 167
SWIDTH 606 0
DWIDTH 7 0
BBX 5 7 1 0
BITMAP
70
40
b0
88
68
10
f0
ENDCHAR
STARTCHAR dieresis
ENCODING 168
SWIDTH 606 0
DWIDTH 7 0
BBX 3 1 2 7
BITMAP
a0
ENDCHAR
STARTCHAR Scaron
ENCODING 169
SWIDTH 606 0
DWIDTH 7 0
BBX 6 9 1 1
BITMAP
50
20
00
74
88
f0
08
88
f0
ENDCHAR
STARTCHAR Scedilla
ENCODING 170
SWIDTH 606 0
DWIDTH 7 0
BBX 6 8 1 -1
BITMAP
74
88
e0
18
88
f0
20
60
ENDCHAR
STARTCHAR Tcaron
ENCODING 171
SWIDTH 606 0
DWIDTH 7 0
BBX 5 9 1 1
BITMAP
50
20
00
f8
a8
20
20
20
70
ENDCHAR
STARTCHAR Zacute
ENCODING 172
SWIDTH 606 0
DWIDTH 7 0
BBX 5 8 1 1
BITMAP
20
00
f8
90
20
40
88
f8
ENDCHAR
STARTCHAR hyphen
ENCODING 173
SWIDTH 606 0
DWIDTH 7 0
BBX 2 1 2 4
BITMAP
c0
ENDCHAR
STARTCHAR Zcaron
ENCODING 174
SWIDTH 606 0
DWIDTH 7 0
BBX 5 9 1 1
BITMAP
50
20
00
f8
90
20
40
88
f8
ENDCHAR
STARTCHAR Zdotaccent
ENCODING 175
SWIDTH 606 0
DWIDTH 7 0
BBX 5 8 1 1
BITMAP
20
00
f8
90
20
40
88
f8
ENDCHAR
STARTCHAR degree
ENCODING 176
SWIDTH 606 0
DWIDTH 7 0
BBX 4 4 1 4
BITMAP
60
90
90
60
ENDCHAR
STARTCHAR aogonek
ENCODING 177
SWIDTH 606 0
DWIDTH 7 0
BBX 6 6 0 0
BITMAP
70
08
78
88
7c
0c
ENDCHAR
STARTCHAR ogonek
ENCODING 178
SWIDTH 606 0
DWIDTH 7 0
BBX 2 1 2 0
BITMAP
80
ENDCHAR
STARTCHAR lslash
ENCODING 179
SWIDTH 606 0
DWIDTH 7 0
BBX 5 7 1 1
BITMAP
e0
28
30
60
a0
20
f8
ENDCHAR
STARTCHAR acute
ENCODING 180
SWIDTH 606 0
DWIDTH 7 0
BBX 2 1 2 7
BITMAP
40
ENDCHAR
STARTCHAR lcaron
ENCODING 181
SWIDTH 606 0
DWIDTH 7 0
BBX 5 7 1 1
BITMAP
e8
28
20
20
20
20
f8
ENDCHAR
STARTCHAR sacute
ENCODING 182
SWIDTH 606 0
DWIDTH 7 0
BBX 5 7 1 1
BITMAP
20
00
78
80
70
08
f0
ENDCHAR
STARTCHAR caron
ENCODING 183
SWIDTH 606 0
DWIDTH 7 0
BBX 3 2 2 6
BITMAP
a0
40
ENDCHAR
STARTCHAR cedilla
ENCODING 184
SWIDTH 606 0
DWIDTH 7 0
BBX 3 3 2 -1
BITMAP
40
20
e0
ENDCHAR
STARTCHAR scaron
ENCODING 185
SWIDTH 606 0
DWIDTH 7 0
BBX 5 7 1 1
BITMAP
50
20
78
80
70
08
f0
ENDCHAR
STARTCHAR scedilla
ENCODING 186
SWIDTH 606 0
DWIDTH 7 0
BBX 5 7 1 -1
BITMAP
78
80
70
08
f0
20
60
ENDCHAR
STARTCHAR tcaron
ENCODING 187
SWIDTH 606 0
DWIDTH 7 0
BBX 5 7 1 1
BITMAP
10
40
f0
40
40
40
78
ENDCHAR
STARTCHAR zacute
ENCODING 188
SWIDTH 606 0
DWIDTH 7 0
BBX 5 7 1 1
BITMAP
20
00
f8
90
20
48
f8
ENDCHAR
STARTCHAR hungarumlaut
ENCODING 189
SWIDTH 606 0
DWIDTH 7 0
BBX 3 1 2 7
BITMAP
60
ENDCHAR
STARTCHAR zcaron
ENCODING 190
SWIDTH 606 0
DWIDTH 7 0
BBX 5 7 1 1
BITMAP
50
20
f8
90
20
48
f8
ENDCHAR
STARTCHAR zdotaccent
ENCODING 191
SWIDTH 606 0
DWIDTH 7 0
BBX 5 7 1 1
BITMAP
20
00
f8
90
20
48
f8
ENDCHAR
STARTCHAR Racute
ENCODING 192
SWIDTH 606 0
DWIDTH 7 0
BBX 6 8 0 1
BITMAP
10
00
f8
4c
70
48
4c
e4
ENDCHAR
STARTCHAR Aacute
ENCODING 193
SWIDTH 606 0
DWIDTH 7 0
BBX 6 8 0 1
BITMAP
10
00
70
28
28
78
44
cc
ENDCHAR
STARTCHAR Acircumflex
ENCODING 194
SWIDTH 606 0
DWIDTH 7 0
BBX 6 8 0 1
BITMAP
38
00
70
28
28
78
44
cc
ENDCHAR
STARTCHAR Abreve
ENCODING 195
SWIDTH 606 0
DWIDTH 7 0
BBX 6 9 0 1
BITMAP
48
30
00
70
28
28
78
44
cc
ENDCHAR
STARTCHAR Adieresis
ENCODING 196
SWIDTH 606 0
DWIDTH 7 0
BBX 6 8 0 1
BITMAP
28
00
70
28
28
78
44
cc
ENDCHAR
STARTCHAR Lacute
ENCODING 197
SWIDTH 606 0
DWIDTH 7 0
BBX 5 8 1 1
BITMAP
40
00
e0
40
40
48
48
f8
ENDCHAR
STARTCHAR Cacute
ENCODING 198
SWIDTH 606 0
DWIDTH 7 0
BBX 7 8 0 1
BITMAP
08
00
3c
c4
80
80
40
3c
ENDCHAR
STARTCHAR Ccedilla
ENCODING 199
SWIDTH 606 0
DWIDTH 7 0
BBX 7 8 0 -1
BITMAP
3c
c4
80
80
40
3c
08
18
ENDCHAR
STARTCHAR Ccaron
ENCODING 200
SWIDTH 606 0
DWIDTH 7 0
BBX 7 9 0 1
BITMAP
28
10
00
3c
c4
80
80
40
3c
ENDCHAR
STARTCHAR Eacute
ENCODING 201
SWIDTH 606 0
DWIDTH 7 0
BBX 5 8 1 1
BITMAP
20
00
f8
48
70
40
48
f8
ENDCHAR
STARTCHAR Eogonek
ENCODING 202
SWIDTH 606 0
DWIDTH 7 0
BBX 5 7 1 0
BITMAP
f8
48
70
40
48
f8
18
ENDCHAR
STARTCHAR Edieresis
ENCODING 203
SWIDTH 606 0
DWIDTH 7 0
BBX 5 8 1 1
BITMAP
50
00
f8
48
70
40
48
f8
ENDCHAR
STARTCHAR Ecaron
ENCODING 204
SWIDTH 606 0
DWIDTH 7 0
BBX 5 9 1 1
BITMAP
50
20
00
f8
48
70
40
48
f8
ENDCHAR
STARTCHAR Iacute
ENCODING 205
SWIDTH 606 0
DWIDTH 7 0
BBX 5 8 1 1
BITMAP
20
00
f8
20
20
20
20
f8
ENDCHAR
STARTCHAR Icircumflex
ENCODING 206
SWIDTH 606 0
DWIDTH 7 0
BBX 5 8 1 1
BITMAP
70
00
f8
20
20
20
20
f8
ENDCHAR
STARTCHAR Dcaron
ENCODING 207
SWIDTH 606 0
DWIDTH 7 0
BBX 6 9 0 1
BITMAP
28
10
00
f8
44
44
44
44
f8
ENDCHAR
STARTCHAR Eth
ENCODING 208
SWIDTH 606 0
DWIDTH 7 0
BBX 6 6 0 1
BITMAP
f8
44
f4
44
44
f8
ENDCHAR
STARTCHAR Nacute
ENCODING 209
SWIDTH 606 0
DWIDTH 7 0
BBX 7 8 0 1
BITMAP
10
00
ce
64
54
54
4c
e4
ENDCHAR
STARTCHAR Ncaron
ENCODING 210
SWIDTH 606 0
DWIDTH 7 0
BBX 7 9 0 1
BITMAP
28
10
00
ce
64
54
54
4c
e4
ENDCHAR
STARTCHAR Oacute
ENCODING 211
SWIDTH 606 0
DWIDTH 7 0
BBX 6 8 0 1
BITMAP
10
00
78
c4
84
84
44
38
ENDCHAR
STARTCHAR Ocircumflex
ENCODING 212
SWIDTH 606 0
DWIDTH 7 0
BBX 6 8 0 1
BITMAP
38
00
78
c4
84
84
44
38
ENDCHAR
STARTCHAR Ohungarumlaut
ENCODING 213
SWIDTH 606 0
DWIDTH 7 0
BBX 6 8 0 1
BITMAP
28
00
78
c4
84
84
44
38
ENDCHAR
STARTCHAR Odieresis
ENCODING 214
SWIDTH 606 0
DWIDTH 7 0
BBX 6 8 0 1
BITMAP
28
00
78
c4
84
84
44
38
ENDCHAR
STARTCHAR multiply
ENCODING 215
SWIDTH 606 0
DWIDTH 7 0
BBX 4 4 1 2
BITMAP
90
60
60
90
ENDCHAR
STARTCHAR Rcaron
ENCODING 216
SWIDTH 606 0
DWIDTH 7 0
BBX 6 9 0 1
BITMAP
28
10
00
f8
4c
70
48
4c
e4
ENDCHAR
STARTCHAR Uring
ENCODING 217
SWIDTH 606 0
DWIDTH 7 0
BBX 7 9 0 1
BITMAP
30
30
00
ee
44
44
44
44
38
ENDCHAR
STARTCHAR Uacute
ENCODING 218
SWIDTH 606 0
DWIDTH 7 0
BBX 7 8 0 1
BITMAP
10
00
ee
44
44
44
44
38
ENDCHAR
STARTCHAR Uhungarumlaut
ENCODING 219
SWIDTH 606 0
DWIDTH 7 0
BBX 7 8 0 1
BITMAP
28
00
ee
44
44
44
44
38
ENDCHAR
STARTCHAR Udieresis
ENCODING 220
SWIDTH 606 0
DWIDTH 7 0
BBX 7 8 0 1
BITMAP
28
00
ee
44
44
44
44
38
ENDCHAR
STARTCHAR Yacute
ENCODING 221
SWIDTH 606 0
DWIDTH 7 0
BBX 6 8 0 1
BITMAP
10
00
cc
48
28
10
10
78
ENDCHAR
STARTCHAR Tcedilla
ENCODING 222
SWIDTH 606 0
DWIDTH 7 0
BBX 6 8 0 -1
BITMAP
7c
54
10
10
10
38
10
30
ENDCHAR
STARTCHAR germandbls
ENCODING 223
SWIDTH 606 0
DWIDTH 7 0
BBX 5 7 1 1
BITMAP
60
90
90
b0
88
88
b0
ENDCHAR
STARTCHAR racute
ENCODING 224
SWIDTH 606 0
DWIDTH 7 0
BBX 5 7 1 1
BITMAP
20
00
d8
60
40
40
f0
ENDCHAR
STARTCHAR aacute
ENCODING 225
SWIDTH 606 0
DWIDTH 7 0
BBX 6 7 0 1
BITMAP
10
00
70
08
78
88
7c
ENDCHAR
STARTCHAR acircumflex
ENCODING 226
SWIDTH 606 0
DWIDTH 7 0
BBX 6 7 0 1
BITMAP
10
00
70
08
78
88
7c
ENDCHAR
STARTCHAR abreve
ENCODING 227
SWIDTH 606 0
DWIDTH 7 0
BBX 6 7 0 1
BITMAP
48
30
70
08
78
88
7c
ENDCHAR
STARTCHAR adieresis
ENCODING 228
SWIDTH 606 0
DWIDTH 7 0
BBX 6 7 0 1
BITMAP
30
00
70
08
78
88
7c
ENDCHAR
STARTCHAR lacute
ENCODING 229
SWIDTH 606 0
DWIDTH 7 0
BBX 4 8 1 1
BITMAP
20
e0
20
20
20
20
20
f0
ENDCHAR
STARTCHAR cacute
ENCODING 230
SWIDTH 606 0
DWIDTH 7 0
BBX 5 7 1 1
BITMAP
10
00
78
88
80
80
70
ENDCHAR
STARTCHAR ccedilla
ENCODING 231
SWIDTH 606 0
DWIDTH 7 0
BBX 5 7 1 -1
BITMAP
78
88
80
80
70
20
60
ENDCHAR
STARTCHAR ccaron
ENCODING 232
SWIDTH 606 0
DWIDTH 7 0
BBX 5 7 1 1
BITMAP
50
20
78
88
80
80
70
ENDCHAR
STARTCHAR eacute
ENCODING 233
SWIDTH 606 0
DWIDTH 7 0
BBX 5 7 1 1
BITMAP
20
00
70
88
f8
80
78
ENDCHAR
STARTCHAR eogonek
ENCODING 234
SWIDTH 606 0
DWIDTH 7 0
BBX 5 6 1 0
BITMAP
70
88
f8
80
78
30
ENDCHAR
STARTCHAR edieresis
ENCODING 235
SWIDTH 606 0
DWIDTH 7 0
BBX 5 7 1 1
BITMAP
50
00
70
88
f8
80
78
ENDCHAR
STARTCHAR ecaron
ENCODING 236
SWIDTH 606 0
DWIDTH 7 0
BBX 5 7 1 1
BITMAP
50
20
70
88
f8
80
78
ENDCHAR
STARTCHAR iacute
ENCODING 237
SWIDTH 606 0
DWIDTH 7 0
BBX 5 7 1 1
BITMAP
20
00
e0
20
20
20
f8
ENDCHAR
STARTCHAR icircumflex
ENCODING 238
SWIDTH 606 0
DWIDTH 7 0
BBX 5 7 1 1
BITMAP
20
00
e0
20
20
20
f8
ENDCHAR
STARTCHAR dcaron
ENCODING 239
SWIDTH 606 0
DWIDTH 7 0
BBX 8 7 0 1
BITMAP
0e
06
74
8c
84
8c
74
ENDCHAR
STARTCHAR dbar
ENCODING 240
SWIDTH 606 0
DWIDTH 7 0
BBX 7 7 0 1
BITMAP
0c
1e
74
8c
84
8c
74
ENDCHAR
STARTCHAR nacute
ENCODING 241
SWIDTH 606 0
DWIDTH 7 0
BBX 7 7 0 1
BITMAP
10
00
f8
44
44
44
ee
ENDCHAR
STARTCHAR ncaron
ENCODING 242
SWIDTH 606 0
DWIDTH 7 0
BBX 7 7 0 1
BITMAP
28
10
f8
44
44
44
ee
ENDCHAR
STARTCHAR oacute
ENCODING 243
SWIDTH 606 0
DWIDTH 7 0
BBX 6 7 0 1
BITMAP
10
00
78
84
84
84
78
ENDCHAR
STARTCHAR ocircumflex
ENCODING 244
SWIDTH 606 0
DWIDTH 7 0
BBX 6 7 0 1
BITMAP
10
00
78
84
84
84
78
ENDCHAR
STARTCHAR ohungarumlaut
ENCODING 245
SWIDTH 606 0
DWIDTH 7 0
BBX 6 7 0 1
BITMAP
18
00
78
84
84
84
78
ENDCHAR
STARTCHAR odieresis
ENCODING 246
SWIDTH 606 0
DWIDTH 7 0
BBX 6 7 0 1
BITMAP
28
00
78
84
84
84
78
ENDCHAR
STARTCHAR divide
ENCODING 247
SWIDTH 606 0
DWIDTH 7 0
BBX 5 5 1 2
BITMAP
20
00
f8
00
20
ENDCHAR
STARTCHAR rcaron
ENCODING 248
SWIDTH 606 0
DWIDTH 7 0
BBX 5 7 1 1
BITMAP
50
20
d8
60
40
40
f0
ENDCHAR
STARTCHAR uring
ENCODING 249
SWIDTH 606 0
DWIDTH 7 0
BBX 6 7 0 1
BITMAP
30
10
c8
48
48
48
3c
ENDCHAR
STARTCHAR uacute
ENCODING 250
SWIDTH 606 0
DWIDTH 7 0
BBX 6 7 0 1
BITMAP
10
00
c8
48
48
48
3c
ENDCHAR
STARTCHAR uhungarumlaut
ENCODING 251
SWIDTH 606 0
DWIDTH 7 0
BBX 6 7 0 1
BITMAP
28
00
c8
48
48
48
3c
ENDCHAR
STARTCHAR udieresis
ENCODING 252
SWIDTH 606 0
DWIDTH 7 0
BBX 6 7 0 1
BITMAP
28
00
c8
48
48
48
3c
ENDCHAR
STARTCHAR yacute
ENCODING 253
SWIDTH 606 0
DWIDTH 7 0
BBX 6 9 0 -1
BITMAP
10
00
cc
48
28
28
10
20
f0
ENDCHAR
STARTCHAR tcedilla
ENCODING 254
SWIDTH 606 0
DWIDTH 7 0
BBX 5 8 1 -1
BITMAP
40
f0
40
40
40
38
10
30
ENDCHAR
STARTCHAR dotaccent
ENCODING 255
SWIDTH 606 0
DWIDTH 7 0
BBX 1 1 3 7
BITMAP
80
ENDCHAR
ENDFONT
